<svg width="155" height="36" viewBox="0 0 155 36" fill="none" xmlns="http://www.w3.org/2000/svg">
<path d="M3.43615 26.5088H0V33.9452H3.43615C6.22222 33.9452 7.89386 32.4188 7.89386 30.227C7.89386 27.9765 6.29187 26.5088 3.43615 26.5088ZM3.38972 32.5362H1.99668V27.9178H3.38972C4.99171 27.9178 5.85075 28.7789 5.85075 30.227C5.85075 31.6751 4.99171 32.5362 3.38972 32.5362Z" fill="#070A11"/>
<path d="M15.4395 32.5949C15.1841 32.5949 15.0448 32.4775 15.0448 32.2622V29.953C15.0448 28.7202 13.9768 27.9765 12.1658 27.9765C10.9121 27.9765 9.86733 28.3092 9.03151 28.9746L10.1459 29.9335C10.6799 29.4834 11.33 29.2485 12.0498 29.2485C12.8391 29.2485 13.3035 29.5029 13.3035 29.8748C13.3035 30.227 12.6766 30.3249 11.8872 30.4031C10.5871 30.5401 8.89221 30.8141 8.89221 32.3405C8.89221 33.3581 9.79768 34.0431 11.1675 34.0431C12.1891 34.0431 13.0945 33.6908 13.5821 33.1037C13.7214 33.7104 14.1857 33.9843 15.0448 33.9843C15.393 33.9843 15.5788 33.9648 15.7181 33.9452V32.5949H15.4395ZM11.5854 32.8102C11.005 32.8102 10.6799 32.5753 10.6799 32.184C10.6799 31.6164 11.3532 31.5186 12.073 31.4207C12.5837 31.3425 12.9784 31.2838 13.257 31.1468V31.6556C13.257 32.3014 12.5141 32.8102 11.5854 32.8102Z" fill="#070A11"/>
<path d="M21.1741 27.9765C20.2222 27.9765 19.3864 28.3288 18.8524 28.8963L18.7828 28.0744H17.1111V33.9452H18.9685V30.5988C18.9685 29.816 19.6882 29.2681 20.5705 29.2681C21.3599 29.2681 21.8242 29.7378 21.8242 30.5793V33.9452H23.6816V30.227C23.6816 28.8767 22.66 27.9765 21.1741 27.9765Z" fill="#070A11"/>
<path d="M25.5158 27.3307H27.5124V26H25.5158V27.3307ZM25.5854 33.9452H27.4428V28.0744H25.5854V33.9452Z" fill="#070A11"/>
<path d="M29.4627 33.9452H31.3201V26.1174H29.4627V33.9452Z" fill="#070A11"/>
<path d="M38.1227 28.0744L36.5672 32.5949H36.1957L34.3615 28.0744H32.3648L34.4312 32.5949H33.4561C32.9685 33.045 32.7363 33.5147 32.7363 34.0822C32.7363 35.2368 33.665 36 35.058 36C36.4046 36 37.2637 35.3151 37.8905 33.7299L40.0962 28.0744H38.1227ZM35.058 34.728C34.6169 34.728 34.3151 34.4931 34.3151 34.1409C34.3151 33.9843 34.3615 33.8474 34.4312 33.7104H36.1028L36.0099 33.9648C35.8242 34.4736 35.5224 34.728 35.058 34.728Z" fill="#070A11"/>
<path d="M45.7844 28.0744V31.4207C45.7844 32.2035 45.0647 32.7515 44.1824 32.7515C43.393 32.7515 42.9287 32.2818 42.9287 31.4403V28.0744H41.0713V31.7926C41.0713 33.1429 42.0929 34.0431 43.5788 34.0431C44.5307 34.0431 45.3665 33.6908 45.9005 33.1233L45.9701 33.9452H47.6418V28.0744H45.7844Z" fill="#070A11"/>
<path d="M55.6982 32.5753C55.4892 32.5753 55.3499 32.4579 55.3499 32.2818V30.227H54.1658L55.9303 28.0744H53.9801L52.3085 30.227H51.403V26.1174H49.5456V33.9452H51.403V31.6556H53.5622V32.6928C53.5622 33.5538 54.1426 33.9648 55.1874 33.9648C55.5124 33.9648 55.6982 33.9648 56 33.9452V32.5753H55.6982Z" fill="#070A11"/>
<rect x="98.561" y="4.78052" width="26.2927" height="14.3415" rx="7.17073" fill="#FFC830"/>
<rect x="128.439" y="4.78052" width="26.2927" height="14.3415" rx="7.17073" fill="#0074FF"/>
<path d="M14.5723 18.6788C14.6436 18.8774 14.8319 19.0099 15.0429 19.0099H18.3205C18.6721 19.0099 18.9139 18.6566 18.7866 18.3289L12.1612 1.26948C12.0865 1.07718 11.9014 0.950495 11.6951 0.950495H7.35604C7.14975 0.950495 6.96464 1.07718 6.88996 1.26948L0.26449 18.3289C0.137205 18.6566 0.378987 19.0099 0.730573 19.0099H3.91343C4.12443 19.0099 4.31273 18.8774 4.38402 18.6788L5.42588 15.7766C5.49718 15.578 5.68547 15.4455 5.89648 15.4455H13.0599C13.2709 15.4455 13.4592 15.578 13.5305 15.7766L14.5723 18.6788ZM7.53433 11.9287C7.18841 11.9287 6.947 11.5859 7.06358 11.2602L9.00742 5.82993C9.16563 5.38794 9.7907 5.38794 9.94892 5.82993L11.8928 11.2602C12.0093 11.5859 11.7679 11.9287 11.422 11.9287H7.53433Z" fill="#070A11"/>
<path d="M21.2311 18.5099C21.2311 18.786 21.455 19.0099 21.7311 19.0099H24.5224C24.7985 19.0099 25.0224 18.786 25.0224 18.5099V0.5C25.0224 0.223858 24.7985 0 24.5224 0H21.7311C21.455 0 21.2311 0.223858 21.2311 0.5V18.5099Z" fill="#070A11"/>
<path d="M31.8134 13.706C31.7125 13.4072 31.9512 13.1168 32.2666 13.1168H41.6312C41.8671 13.1168 42.0733 12.9522 42.1119 12.7195C42.1778 12.3226 42.1778 12.1019 42.1778 11.8812C42.1778 7.41386 39.4292 4.51485 35.1166 4.51485C30.7567 4.51485 27.9132 7.50891 27.9132 11.8812C27.9132 16.1109 30.4249 19.2475 35.3536 19.2475C37.888 19.2475 39.8583 18.4394 41.2646 17.1213C41.4625 16.9358 41.4547 16.6245 41.2612 16.4344L39.6592 14.8606C39.4562 14.6613 39.1297 14.6735 38.9178 14.8633C38.0478 15.6428 36.886 16.1109 35.401 16.1109C33.584 16.1109 32.3321 15.2419 31.8134 13.706ZM35.1166 7.55644C36.6672 7.55644 37.736 8.33684 38.2247 9.7662C38.3274 10.0666 38.0882 10.3604 37.7707 10.3604H32.3402C32.0164 10.3604 31.7764 10.0556 31.8942 9.75391C32.4368 8.36423 33.5753 7.55644 35.1166 7.55644Z" fill="#070A11"/>
<path d="M56.8408 19.0099C57.2484 19.0099 57.4847 18.5485 57.2467 18.2178L52.859 12.1223C52.7346 11.9495 52.7333 11.7169 52.8557 11.5427L57.0739 5.53995C57.3067 5.20864 57.0697 4.75247 56.6648 4.75247H53.6691C53.5063 4.75247 53.3538 4.8317 53.2601 4.96485L50.6464 8.6814C50.4464 8.96578 50.0244 8.96429 49.8264 8.67851L47.2556 4.96774C47.1622 4.83292 47.0086 4.75247 46.8446 4.75247H43.7601C43.3545 4.75247 43.1177 5.21009 43.352 5.54125L47.5636 11.4945C47.6871 11.6689 47.686 11.9026 47.5609 12.0758L43.1289 18.2173C42.8903 18.548 43.1266 19.0099 43.5344 19.0099H46.7038C46.8671 19.0099 47.02 18.9302 47.1136 18.7964L49.7771 14.9862C49.9761 14.7015 50.3977 14.7015 50.5967 14.9862L53.2602 18.7964C53.3538 18.9302 53.5067 19.0099 53.67 19.0099H56.8408Z" fill="#070A11"/>
<path d="M62.1436 13.706C62.0426 13.4072 62.2814 13.1168 62.5968 13.1168H71.9614C72.1972 13.1168 72.4034 12.9522 72.4421 12.7195C72.508 12.3226 72.508 12.1019 72.508 11.8812C72.508 7.41386 69.7593 4.51485 65.4467 4.51485C61.0868 4.51485 58.2433 7.50891 58.2433 11.8812C58.2433 16.1109 60.7551 19.2475 65.6837 19.2475C68.2181 19.2475 70.1885 18.4394 71.5947 17.1213C71.7927 16.9358 71.7849 16.6245 71.5913 16.4344L69.9893 14.8606C69.7864 14.6613 69.4598 14.6735 69.248 14.8633C68.378 15.6428 67.2161 16.1109 65.7311 16.1109C63.9141 16.1109 62.6623 15.2419 62.1436 13.706ZM65.4467 7.55644C66.9973 7.55644 68.0661 8.33684 68.5549 9.7662C68.6576 10.0666 68.4183 10.3604 68.1009 10.3604H62.6704C62.3465 10.3604 62.1066 10.0556 62.2243 9.75391C62.767 8.36423 63.9055 7.55644 65.4467 7.55644Z" fill="#070A11"/>
<path d="M85.3477 4.75247C85.125 4.75247 84.9292 4.89968 84.8673 5.11356L81.901 15.3696C81.8392 15.5835 81.6433 15.7307 81.4207 15.7307H81.3961C81.1822 15.7307 80.9919 15.5946 80.9229 15.3921L77.4099 5.09109C77.3409 4.88859 77.1506 4.75247 76.9367 4.75247H73.9466C73.5958 4.75247 73.354 5.10432 73.4798 5.43179L77.1756 15.0514C77.3015 15.3788 77.0597 15.7307 76.7089 15.7307H75.6672C75.5264 15.7307 75.3914 15.7896 75.2997 15.8964C74.4044 16.9393 73.9771 18.0338 73.9771 19.3426C73.9771 22.1465 75.8727 24 78.7162 24C81.4649 24 83.2183 22.3366 84.4979 18.4871L88.785 5.40822C88.891 5.08492 88.6502 4.75247 88.3099 4.75247H85.3477ZM78.7162 20.9109C77.8158 20.9109 77.1997 20.3406 77.1997 19.4851C77.1997 19.222 77.2451 18.9817 77.3202 18.7483C77.3815 18.5577 77.5665 18.4396 77.7667 18.4396H80.2025C80.5238 18.4396 80.7534 18.7503 80.6592 19.0574C80.2801 20.2931 79.664 20.9109 78.7162 20.9109Z" fill="#070A11"/>
</svg>
